<svg xmlns="http://www.w3.org/2000/svg" viewBox="0 0 1200 900" role="img" aria-labelledby="title desc">
  <title id="title">GAIB Maize Sheller</title>
  <desc id="desc">Illustration of a GAIB maize dehusker cum sheller.</desc>
  <rect width="1200" height="900" fill="#fafaf7"/>
  <path d="M0 690h1200v210H0z" fill="#08431f"/>
  <path d="M0 621c139-39 293-40 463-3 175 39 337 34 486-14 87-28 170-38 251-31v117H0z" fill="#f6d87e" opacity=".55"/>
  <text x="165" y="170" font-family="Poppins, Arial, sans-serif" font-size="86" font-weight="800" fill="#0b5d2a">GAIB</text>
  <text x="165" y="256" font-family="Poppins, Arial, sans-serif" font-size="74" font-weight="800" fill="#1b1b1b">MAIZE SHELLER</text>
  <path d="M165 292h350" stroke="#d8a31a" stroke-width="18" stroke-linecap="round"/>
  <g transform="translate(525 225)">
    <rect x="95" y="204" width="440" height="230" rx="16" fill="#0b5d2a"/>
    <rect x="130" y="100" width="360" height="130" rx="18" fill="#d8a31a"/>
    <path d="M158 100h304l-42-70H200z" fill="#f1b91d"/>
    <rect x="60" y="402" width="515" height="54" rx="16" fill="#1b1b1b"/>
    <circle cx="165" cy="500" r="64" fill="#1b1b1b"/>
    <circle cx="165" cy="500" r="28" fill="#d8a31a"/>
    <circle cx="465" cy="500" r="64" fill="#1b1b1b"/>
    <circle cx="465" cy="500" r="28" fill="#d8a31a"/>
    <path d="M525 226h88c58 0 105 47 105 105v18H525z" fill="#155bb4"/>
    <path d="M620 150c37 40 50 82 40 126" stroke="#d8a31a" stroke-width="22" stroke-linecap="round"/>
    <g fill="#f1b91d">
      <ellipse cx="93" cy="90" rx="26" ry="60" transform="rotate(-23 93 90)"/>
      <ellipse cx="128" cy="75" rx="26" ry="60" transform="rotate(-8 128 75)"/>
      <ellipse cx="164" cy="79" rx="26" ry="60" transform="rotate(12 164 79)"/>
    </g>
  </g>
  <text x="165" y="776" font-family="Inter, Arial, sans-serif" font-size="34" font-weight="700" fill="#ffffff">Power maize dehusker cum sheller for post-harvest work</text>
</svg>
