<svg xmlns="http://www.w3.org/2000/svg" viewBox="0 0 1200 900" role="img" aria-labelledby="title desc">
  <title id="title">Zero Till Seed Drill</title>
  <desc id="desc">Illustration of a zero till seed drill.</desc>
  <rect width="1200" height="900" fill="#FAFAF7"/>
  <circle cx="230" cy="166" r="120" fill="#0B5D2A" opacity="0.1"/>
  <rect x="184" y="368" width="776" height="114" rx="32" fill="#0B5D2A"/>
  <path d="M270 264h590l-56 126H326l-56-126Z" fill="#17773A"/>
  <rect x="330" y="306" width="420" height="28" rx="14" fill="#FAFAF7" opacity="0.58"/>
  <path d="M940 404h120l62 72" fill="none" stroke="#0B5D2A" stroke-width="28" stroke-linecap="round" stroke-linejoin="round"/>
  <g fill="#D8A31A">
    <path d="M284 482h52l-34 174h-52z"/>
    <path d="M402 482h52l-34 174h-52z"/>
    <path d="M520 482h52l-34 174h-52z"/>
    <path d="M638 482h52l-34 174h-52z"/>
    <path d="M756 482h52l-34 174h-52z"/>
    <path d="M874 482h52l-34 174h-52z"/>
  </g>
  <circle cx="258" cy="668" r="62" fill="#1B1B1B"/>
  <circle cx="910" cy="668" r="62" fill="#1B1B1B"/>
  <path d="M142 720h916" stroke="#1B1B1B" stroke-width="15" opacity="0.1" stroke-linecap="round"/>
  <text x="572" y="450" text-anchor="middle" font-family="Poppins, Arial, sans-serif" font-size="43" font-weight="800" fill="#FFFFFF">ZERO TILL DRILL</text>
</svg>
